<svg version="1.2" xmlns="http://www.w3.org/2000/svg" viewBox="0 0 354 532" width="354" height="532">
	<defs>
		<clipPath clipPathUnits="userSpaceOnUse" id="cp1">
			<path d="m198.6 25.5c-0.9 7.1-0.8 11.3-3 18.1-1.8 5.7-3.3 8.8-6.5 13.8-3.5 3.7-5.1 6.2-9.1 5.3-2.3-0.5-3.7-1.6-5-3.7-3.4-5-18.1-42-20.2-43.6 0 2.7 11.7 43.4 12.7 54.2 0.9 8.7-0.6 15.2-1.4 23.9l-3.2 14.9c-2.3 0.8-7.5-9-12.1-15.9-4-6-6.1-9.5-9.6-16 1-4.6 1.8-10.1 1.3-17.6-0.5-7.5 10.6-16.1 10.2-18.6-0.1-0.8-3 1.1-5.9 3.1-2.9 2-5.9 3.9-6.1 3-0.5-2.3-1.2-4.6-2-7-5.2-15.1-18.5-26.8-23.5-30 2.8 7.1 11.7 15.6 15.2 27.8 3.5 12.2 5 24.6 1.9 27-4 3.2-14.2-1-22.6-6.2-12.1-7.5-15.8-17.6-19.6-17.6-3.8 0 8.4 12.9 10.1 20.3 1.7 7.4-24.9 2.6-27.2 2.3-4.1-0.5-5 1.6-1.7 2.7 4.9 1.6 13.8 3.2 18.6 3.9 16.1 2.1 30.2 1.7 43.3 14.3 10.9 10.5 14.8 20.2 17.1 35.6 1.3 8.3-9.9 5.3-30.5-7.2-7.4-4.2-16.7-12.1-18-25.8-1.6-3.7-3.5 10.3-1.1 15.7 0.8 1.9-4.6 0.5-10.9-0.8-5.2-1.1-11.1-2.2-14.4-1.5-4.3 1.1 21.7 3.7 33.7 14 6.4 5.5 27.4 20.9 35.4 28.3 2.3 2.1 1.1 8.1-2.4 9.1-4.2 1.3-11.8 0.7-19.8-0.4-14.3-1.9-20.5-9-27.1-14.8-6.6-5.9-15.1-20.9-15.1-20.9 0 4.8 0.7 11.9 3.6 16.9 2.6 4.3 4.3 6.7 7.6 10.6 0 0-26.4-6.5-33.4-6.5 1 2.7 17.4 6.3 25.1 10.7 9.2 5.3 40.4 21.2 39.4 23.8-2.1 5.5-28.3 3.7-37.4 4.8-9.3 1.1-23.9 2.7-24 5.7-0.1 1.8 5.1 1.3 11.1 0.8 3.8-0.3 8-0.6 11.2-0.3 15.8 1.5 26.7 1.6 40.3 5.3 9.6 2.6 21.1 9.9 23.2 14.4 2.1 4.4 4.5 8.5 4 21.9l-0.9 33c-102.7 1.3-150.2 9.8-150.2 9.8 0 0 47.5 8.5 150.2 9.8l0.9 33c0.4 13.4-1.9 17.5-4 21.9-2.1 4.5-13.6 11.8-23.2 14.4-13.6 3.7-24.5 3.8-40.3 5.3-3.2 0.3-7.4 0-11.2-0.3-6-0.5-11.2-1-11.1 0.8 0.2 3 14.8 4.6 24 5.7 9.1 1 35.3-0.7 37.4 4.8 1 2.7-30.2 18.6-39.4 23.8-7.7 4.5-24.1 8-25.1 10.7 7 0 33.4-6.5 33.4-6.5-3.2 3.9-4.9 6.3-7.6 10.6-3 5-3.6 12.1-3.6 16.9 0 0 8.6-15 15.1-20.9 6.6-5.9 12.7-12.9 27.1-14.8 7.9-1.1 15.5-1.7 19.8-0.4 3.4 1.1 4.6 7 2.4 9.1-8 7.4-29 22.9-35.4 28.3-12 10.3-38.1 12.9-33.7 14 3.4 0.7 9.2-0.4 14.4-1.5 6.3-1.3 11.8-2.7 10.9-0.8-2.4 5.4-0.4 19.4 1.1 15.7 1.3-13.7 10.5-21.6 18-25.8 20.6-12.6 31.7-15.5 30.5-7.2-2.3 15.4-6.2 25.1-17.1 35.6-13.1 12.6-27.2 12.2-43.3 14.3-4.9 0.6-13.8 2.2-18.6 3.9-3.3 1.1-2.4 3.2 1.7 2.7 2.4-0.3 28.9-5 27.2 2.3-1.7 7.4-13.9 20.3-10.1 20.3 3.8 0 7.5-10.2 19.6-17.6 8.4-5.2 18.6-9.4 22.6-6.2 3.2 2.5 1.6 14.8-1.9 27-3.5 12.2-12.4 20.6-15.2 27.8 5-3.2 18.3-14.9 23.5-30 0.8-2.4 1.5-4.7 2-7 0.2-0.9 3.2 1.1 6.1 3 2.9 2 5.8 3.9 5.9 3.1 0.4-2.5-10.6-11.1-10.2-18.6 0.5-7.5-0.3-12.9-1.3-17.6 3.4-6.4 5.6-9.9 9.6-16 4.6-6.9 9.8-16.7 12.1-15.9l3.2 14.9c0.8 8.7 2.3 15.3 1.4 23.9-1 10.8-12.7 51.5-12.7 54.2 2-1.6 16.8-38.6 20.2-43.6 1.3-2.1 2.7-3.2 5-3.7 4-0.9 5.6 1.6 9.1 5.3 3.2 5 4.7 8.1 6.5 13.8 2.2 6.7 2.2 11 3 18.1 1.2 9.9 1.6 15.5 1.5 25.5 3-2.1 7.3-31.4 2.5-48.4-4.8-17-13.2-19.9-17.1-27.6-3.9-7.7 3.2-31.3 4-35.6 1.4-7 5.7-9.8 9.4-4.9 2.9 3.9 25 40.5 28.9 51.1 4 10.6 12.4 43.5 14.9 44.6-0.3-7.1-6.6-28-7.8-35-1.4-7.6-2.3-15.9-2.3-18.1 0-2.2 7.1 5.7 14.5 12.4 7.4 6.7 15 13.5 16 12.4-16.1-17.5-30.7-37.1-39.3-48.8-4.1-5.6-8.8-16.3-8.8-19.1 0-2.8 8.9 5.3 12.7 8.2 7.6 5.8 22 16.4 22.5 12.1 0 0-27.7-24.8-35.7-35.2-8.1-10.4-3.1-14 6.9-15.6 10-1.6 16 3.3 24.1 8.2 8.7 5.2 17.1 14.5 24.2 21.2 7.5 7.2 11.1 11.6 17.6 19.7 3.2-1.2-6.8-16.3-13.4-22.6-6.1-5.8-12.6-13.7-8.1-18.9 2.7-3.1 18.7-2.5 31.6-2 8.9 0.4 16.3 0.7 16.6-0.1 1-2.6-35.8-10.5-54-10.7-18.2-0.1-41.4-16.8-37.7-23 3.7-6.2 21.6-2.2 52.4 10.4 4.8 0.4-8.9-8.9-12.9-12 12.4-0.4 32.5-9.7 31.9-12.4-19.5 6.2-30.5 6.6-45.1 2.2-14.6-4.4-40-13-40-15.8 0-8-0.3-18.4 0.7-32.8l1.1-20.4c98.4-1.6 143.9-9.7 143.9-9.7 0 0-45.5-8.1-143.9-9.7l-1.1-20.4c-1-14.4-0.7-24.8-0.7-32.8 0-8 25.4-11.4 40-15.8 14.6-4.4 25.5-4 45.1 2.2 0.5-2.7-19.5-12-31.9-12.4 4-3.1 17.6-12.4 12.9-12-30.8 12.6-48.7 16.6-52.4 10.4-3.7-6.2 19.5-22.9 37.7-23 18.2-0.1 55-8.1 54-10.7-0.3-0.8-7.7-0.5-16.6 0-12.9 0.5-29 1-31.6-2-4.5-5.2 1.9-13.1 8.1-18.9 6.6-6.3 16.6-21.4 13.4-22.6-6.5 8.1-10.1 12.4-17.6 19.7-7 6.8-15.5 16.1-24.2 21.2-8.1 4.8-14.1 9.8-24.1 8.2-10-1.6-15-5.2-6.9-15.6 8.1-10.4 35.7-35.2 35.7-35.2-0.5-4.3-14.9 6.3-22.5 12.1-3.7 2.9-12.6 8.7-12.7 5.9 0-2.8 4.7-11.2 8.8-16.8 8.6-11.7 23.2-31.3 39.3-48.8-1-1.1-8.6 5.7-16 12.4-7.4 6.8-14.5 13.5-14.5 12.4 0-2.2 0.9-10.5 2.3-18.1 1.3-7 7.5-27.9 7.8-35-2.5 1.1-10.9 33.9-14.9 44.6-3.9 10.5-26 47.2-28.9 51.1-3.7 4.9-8 2.2-9.4-4.9-0.8-4.3-7.9-27.9-4-35.6 3.9-7.7 12.3-10.6 17.1-27.6 4.8-17 0.5-46.3-2.5-48.4 0 10-0.3 15.6-1.5 25.5"/>
		</clipPath>
		<linearGradient id="g1" x2="1" gradientUnits="userSpaceOnUse" gradientTransform="matrix(0,-532,354.7,0,174.7,529)">
			<stop offset="0" stop-color="#00b6bd"/>
			<stop offset=".3" stop-color="#00b6bd"/>
			<stop offset="1" stop-color="#00457c"/>
		</linearGradient>
	</defs>
	<style>
		.s0 { fill: url(#g1) } 
		.s1 { fill: #00b6be } 
	</style>
	<g id="Clip-Path" clip-path="url(#cp1)">
		<g>
			<path fill-rule="evenodd" class="s0" d="m-0.3 0h354.7v532h-354.7z"/>
		</g>
	</g>
	<path class="s1" d="m279.3 173c3.4 3.6 8.4 5.5 13.6 4.5 5.2-1 9.2-4.6 10.9-9.3-3.4-3.6-8.4-5.5-13.6-4.5-5.2 1-9.2 4.6-10.9 9.3zm-28-64.9c0 4.2 3.4 7.5 7.5 7.5 4.1 0 7.5-3.4 7.5-7.5 0-4.1-3.4-7.5-7.5-7.5-4.1 0-7.5 3.4-7.5 7.5zm-195.1 48.3c1.8 5.7 6.4 10.3 12.5 11.8 6.1 1.5 12.3-0.4 16.6-4.5-1.8-5.7-6.4-10.3-12.5-11.8-6.1-1.5-12.3 0.4-16.6 4.5zm16.8-29.6c0.4-5.3-1.9-10.7-6.5-14.1-4.6-3.3-10.4-3.8-15.4-1.8-0.4 5.3 1.9 10.7 6.5 14.1 4.6 3.3 10.4 3.8 15.4 1.8zm16.1-75.3c0-3.9-3.1-7-7-7-3.9 0-7 3.1-7 7 0 3.9 3.1 7 7 7 3.9 0 7-3.1 7-7zm1.3 40.4c0.3-4.8-1.7-9.6-5.8-12.7-4.1-3-9.4-3.4-13.8-1.6-0.3 4.8 1.7 9.6 5.8 12.7 4.1 3 9.4 3.4 13.8 1.6zm13.3 101.1c-4.4-4-10.7-5.7-16.7-4-6.1 1.7-10.5 6.5-12.1 12.2 4.4 4 10.7 5.7 16.7 4 6.1-1.7 10.5-6.5 12.1-12.2zm-0.5-60.7c0 4.3 3.5 7.8 7.8 7.8 4.3 0 7.8-3.5 7.8-7.8 0-4.3-3.5-7.8-7.8-7.8-4.3 0-7.8 3.5-7.8 7.8zm23.5-81.9c0.9-5.9-1-12-5.8-16.2-4.8-4.1-11.1-5.2-16.8-3.5-0.9 5.9 1 12 5.8 16.2 4.8 4.1 11.1 5.2 16.8 3.5zm8.9 53.8c0.4-5.3-1.9-10.7-6.5-14.1-4.6-3.3-10.4-3.8-15.4-1.8-0.4 5.3 1.9 10.7 6.5 14.1 4.6 3.3 10.4 3.8 15.4 1.8zm14.5-80c0.9-4.1-0.4-8.1-3.2-10.9-3.7 1.3-6.7 4.3-7.6 8.4-0.9 4.1 0.4 8.1 3.2 10.9 3.7-1.3 6.7-4.3 7.6-8.4zm11.7 48.1c1.4-4.8 0-9.8-3.1-13.3-4.5 1.3-8.3 4.8-9.7 9.6-1.4 4.8 0 9.8 3.1 13.3 4.5-1.3 8.3-4.8 9.7-9.6zm26-28.7c3.4-5.6 3.9-12.7 0.8-18.9-1.1-2.1-2.6-3.8-4.2-5.3-3.2-2.9-7.2-4.8-11.5-5.1-3.4 5.6-3.9 12.7-0.8 18.9 3.2 6.2 9.2 9.9 15.7 10.5m16.4 25.6c-5.6 1.9-10.2 6.6-11.6 12.7-1.4 6.2 0.6 12.3 4.8 16.5 5.6-1.9 10.2-6.6 11.6-12.7 1.4-6.2-0.6-12.3-4.8-16.5zm10.7-18.2c-3.9 0-7 3.1-7 7 0 3.9 3.1 7 7 7 3.9 0 7-3.1 7-7 0-3.9-3.1-7-7-7zm9.2-32.1c2.3-4.5 1.9-9.7-0.6-13.7-4.7 0.4-9.2 3.1-11.4 7.6-2.3 4.5-1.9 9.7 0.6 13.7 4.7-0.4 9.2-3.1 11.4-7.6zm4 14.2c-3.3-2.1-7.6-2.5-11.3-0.7-3.7 1.8-6.1 5.4-6.5 9.3 3.3 2.1 7.6 2.5 11.3 0.7 3.7-1.8 6.1-5.4 6.5-9.3zm11.8 83.9c-4.2 1.4-7.6 4.9-8.7 9.5-1.1 4.6 0.5 9.2 3.6 12.4 4.2-1.5 7.6-4.9 8.7-9.5 1.1-4.6-0.5-9.2-3.6-12.4zm16.6-73.6c3.1-4 3.7-9.1 2.1-13.6-4.7-0.5-9.6 1.3-12.7 5.3-3.1 4-3.7 9.1-2.1 13.6 4.7 0.5 9.6-1.3 12.7-5.3zm19.5 28.7c-4.4-4-10.7-5.7-16.7-4-6.1 1.7-10.5 6.5-12.1 12.2 4.4 4 10.7 5.7 16.7 4 6.1-1.7 10.5-6.5 12.1-12.2zm0.5 126.3c0-4.6-3.8-8.4-8.4-8.4-4.6 0-8.4 3.8-8.4 8.4 0 4.6 3.8 8.4 8.4 8.4 4.6 0 8.4-3.7 8.4-8.4zm22.6-73.6c-3.3-3-8-4.3-12.5-3-4.6 1.3-7.8 4.9-9.1 9.2 3.3 3 8 4.3 12.6 3 4.6-1.3 7.8-4.9 9.1-9.2"/>
</svg>