<svg width="568" height="801" viewBox="0 0 568 801" fill="none" xmlns="http://www.w3.org/2000/svg">
<path d="M166.66 288.271C159.592 282.253 149.586 279.657 139.873 282.294C130.146 284.917 123.122 292.109 120.506 300.765C127.574 306.798 137.581 309.379 147.294 306.742C157.021 304.119 164.06 296.927 166.66 288.271Z" fill="#00B6BD"/>
<path d="M244.069 120.364C251.343 118.404 257.382 113.158 259.586 105.897C261.79 98.6352 259.615 91.153 254.561 85.8658C247.302 87.8261 241.262 93.0719 239.058 100.333C236.839 107.608 239.014 115.077 244.069 120.364Z" fill="#F47721"/>
<path d="M365.824 46.95C360.49 43.7887 353.672 43.1951 347.677 45.9561C341.682 48.7171 337.979 54.1423 337.332 60.0508C342.666 63.2121 349.484 63.8057 355.479 61.0447C361.475 58.2838 365.178 52.8447 365.824 46.95Z" fill="#5FBB46"/>
<path d="M235.825 16.8281C229.874 18.7607 225.098 23.3715 223.585 29.5147C222.086 35.644 224.232 41.7733 228.699 45.97C234.65 44.0373 239.425 39.4265 240.939 33.2834C242.438 27.154 240.277 21.0247 235.825 16.8281Z" fill="#9CCB3B"/>
<path d="M137.169 243.917C134.231 235.358 126.942 228.414 117.127 226.108C107.311 223.789 97.422 226.702 90.5598 232.969C93.4986 241.528 100.787 248.472 110.603 250.791C120.418 253.083 130.322 250.184 137.169 243.917Z" fill="#F47721"/>
<path d="M442.557 105.745C435.489 99.7119 425.482 97.1304 415.769 99.7672C406.042 102.39 399.003 109.582 396.388 118.238C403.47 124.257 413.477 126.852 423.19 124.215C432.917 121.579 439.941 114.4 442.557 105.745Z" fill="#5FBB46"/>
<path d="M327.472 101.493C318.465 104.406 311.221 111.405 308.943 120.709C306.666 130 309.928 139.29 316.672 145.64C325.694 142.728 332.939 135.729 335.216 126.424C337.494 117.134 334.232 107.843 327.472 101.493Z" fill="#00B6BD"/>
<path d="M217.678 154.185C218.281 146.11 214.681 137.992 207.319 132.94C199.957 127.901 190.656 127.169 182.706 130.22C182.089 138.296 185.689 146.413 193.051 151.466C200.427 156.518 209.714 157.222 217.678 154.185Z" fill="#9CCB3B"/>
<path d="M145.236 135.508C145.795 128.246 142.547 120.944 135.92 116.388C129.293 111.846 120.932 111.211 113.776 113.945C113.218 121.206 116.465 128.522 123.093 133.064C129.72 137.606 138.08 138.255 145.236 135.508Z" fill="#00B6BD"/>
<path d="M167.204 43.1539C165.705 52.0442 168.85 61.3625 176.491 67.616C184.117 73.8834 194.344 75.5262 203.454 72.8894C204.968 63.9992 201.808 54.6809 194.182 48.4274C186.541 42.16 176.329 40.5172 167.204 43.1539Z" fill="#5FBB46"/>
<path d="M277.322 18.25C271.915 26.7261 271.048 37.4524 276.102 46.7983C281.157 56.1579 290.87 61.8041 301.317 62.66C306.725 54.1838 307.592 43.4575 302.537 34.0979C297.482 24.752 287.784 19.0921 277.322 18.25Z" fill="#00B6BD"/>
<path d="M414.623 41.9801C407.026 41.2209 399.268 43.9818 394.287 50.0007C389.305 56.0058 388.336 63.7779 390.966 70.5422C398.548 71.3015 406.306 68.5405 411.288 62.5217C416.269 56.5166 417.239 48.7445 414.623 41.9801Z" fill="#F47721"/>
<path d="M358.521 4.70749C350.91 5.3149 343.857 9.42872 340.183 16.2345C336.509 23.0264 337.127 30.8261 341.065 36.9969C348.676 36.3757 355.729 32.2618 359.403 25.4699C363.076 18.6641 362.459 10.8644 358.521 4.70749Z" fill="#9CCB3B"/>
<path d="M117.494 188.311C118.096 180.235 114.496 172.118 107.135 167.066C99.7729 162.013 90.4715 161.295 82.522 164.346C81.9049 172.422 85.5049 180.539 92.8667 185.592C100.243 190.63 109.53 191.348 117.494 188.311Z" fill="#5FBB46"/>
<path d="M384.779 173.568C378.02 175.762 372.583 181.008 370.879 187.98C369.174 194.951 371.613 201.909 376.683 206.671C383.442 204.49 388.879 199.244 390.583 192.273C392.288 185.302 389.849 178.33 384.779 173.568Z" fill="#F47721"/>
<path d="M479.512 185.439C474.193 180.912 466.699 178.979 459.411 180.953C452.108 182.927 446.847 188.311 444.878 194.799C450.198 199.327 457.692 201.26 464.98 199.286C472.268 197.325 477.543 191.928 479.512 185.439Z" fill="#5FBB46"/>
<path d="M178.21 208.383C185.072 208.383 190.627 203.137 190.627 196.663C190.627 190.189 185.072 184.943 178.21 184.943C171.348 184.943 165.779 190.189 165.779 196.663C165.779 203.137 171.348 208.383 178.21 208.383Z" fill="#00B6BD"/>
<path d="M128.397 85.1479C134.583 85.1479 139.579 80.4267 139.579 74.6011C139.579 68.7755 134.583 64.0542 128.397 64.0542C122.226 64.0542 117.215 68.7755 117.215 74.6011C117.215 80.4267 122.226 85.1479 128.397 85.1479Z" fill="#F47721"/>
<path d="M344.709 95.0322C350.88 95.0322 355.876 90.2972 355.876 84.4715C355.876 78.6459 350.88 73.9247 344.709 73.9247C338.522 73.9247 333.526 78.6459 333.526 84.4715C333.526 90.2972 338.522 95.0322 344.709 95.0322Z" fill="#F47721"/>
<path d="M421 309.282C428.406 309.282 434.416 303.622 434.416 296.623C434.416 289.638 428.406 283.964 421 283.964C413.58 283.964 407.57 289.638 407.57 296.623C407.57 303.622 413.58 309.282 421 309.282Z" fill="#9CCB3B"/>
<path d="M418.767 170.475C426.173 170.475 432.183 164.802 432.183 157.816C432.183 150.817 426.173 145.157 418.767 145.157C411.347 145.157 405.337 150.817 405.337 157.816C405.337 164.802 411.347 170.475 418.767 170.475Z" fill="#00B6BD"/>
<path d="M487.109 250.916C481.702 245.421 473.59 242.591 465.318 244.11C457.045 245.628 450.653 251.109 447.817 258.122C453.224 263.602 461.336 266.432 469.608 264.914C477.881 263.395 484.273 257.915 487.109 250.916Z" fill="#00B6BD"/>
<path d="M503.449 213.463C502.156 210.44 433.461 218.074 426.261 210.288C419.075 202.489 429.347 190.63 439.192 181.878C449.742 172.394 465.759 149.754 460.66 147.918C450.256 160.039 444.496 166.61 432.418 177.516C421.147 187.69 407.629 201.702 393.684 209.474C380.694 216.735 371.158 224.162 355.127 221.732C339.11 219.317 331.102 213.891 344.003 198.292C356.905 182.692 401.251 145.406 401.251 145.406C400.473 139 377.418 154.834 365.251 163.614C359.285 167.963 345.061 176.756 344.958 172.532C344.856 168.253 352.452 155.663 359.006 147.269C372.745 129.668 396.094 100.181 421.911 73.8142C418.693 70.5838 372.995 114.455 372.995 111.156C372.995 107.857 374.523 95.391 376.727 83.9607C378.784 73.4828 388.762 42.0356 389.29 31.3369C385.25 32.952 371.79 82.4007 365.457 98.3591C359.153 114.207 323.755 169.357 319.156 175.183C313.278 182.596 306.342 178.454 304.138 167.88C302.786 161.406 291.472 125.913 297.673 114.331C303.859 102.735 317.378 98.3315 325.077 72.7926C332.777 47.2538 325.9 3.1751 321.022 0C321.139 14.992 320.566 23.4819 318.627 38.3773C317.231 49.0622 317.348 55.4124 313.778 65.5451C310.839 74.1317 308.444 78.8529 303.33 86.3489C297.673 91.9537 295.101 95.6809 288.754 94.3695C285.007 93.5412 282.758 91.9813 280.701 88.7509C275.25 81.2273 251.651 25.6217 248.404 23.1782C248.404 27.1816 267.05 88.5024 268.696 104.737C270.107 117.782 267.756 127.68 266.419 140.74L261.334 163.117C257.72 164.332 249.3 149.506 241.968 139.138C235.59 130.069 232.152 124.781 226.642 115.118C228.273 108.16 229.478 99.988 228.684 88.6819C227.905 77.3758 245.612 64.5097 244.95 60.6996C244.51 58.1595 226.392 72.5441 225.731 69.8936C224.864 66.4838 223.791 62.9912 222.498 59.4296C214.24 36.6793 192.919 19.0506 184.881 14.2603C189.436 24.9867 203.675 37.6732 209.273 56.0336C214.857 74.3802 217.326 92.9614 212.286 96.7163C205.82 101.562 189.554 95.1564 176.079 87.3843C156.757 76.161 150.732 60.9067 144.693 60.8515C138.668 60.7824 158.138 80.2886 160.856 91.36C163.575 102.431 120.991 95.3358 117.215 94.8388C110.661 94.0934 109.265 97.3099 114.482 98.9389C122.314 101.382 136.508 103.771 144.325 104.737C170.172 107.953 192.772 107.346 213.74 126.314C231.153 142.134 237.354 156.753 241.101 179.876C243.114 192.287 225.26 187.897 192.316 168.971C180.429 162.62 165.558 150.707 163.545 130.124C161.047 124.561 157.917 145.654 161.767 153.744C164.192 158.893 132.982 147.863 121.123 150.251C114.173 151.839 155.89 155.815 175.124 171.262C185.395 179.504 219.059 202.737 231.873 213.905C235.487 217.053 233.563 226.026 228.082 227.641C221.293 229.656 209.112 228.662 196.387 227.075C173.42 224.19 163.56 213.574 153.054 204.753C142.533 195.931 128.808 173.305 128.808 173.305C128.808 180.484 129.852 191.265 134.627 198.72C138.83 205.222 141.563 208.825 146.706 214.664C146.706 214.664 104.431 204.863 93.1605 204.863C94.7916 208.88 120.947 214.278 133.349 220.973C148.087 228.869 198.047 252.807 196.489 256.81C193.154 265.079 151.173 262.401 136.67 263.975C121.814 265.632 98.4651 268.047 98.1565 272.603C97.8626 277.145 120.638 272.175 133.804 273.335C159.093 275.571 176.608 275.751 198.37 281.314C213.681 285.234 232.108 296.14 235.517 302.932C238.896 309.489 242.688 315.729 241.968 335.815L240.586 385.485C76.0713 387.473 0 400.214 0 400.214C0 400.214 76.0713 412.97 240.586 414.958L241.968 464.628C242.688 484.713 238.896 490.953 235.517 497.497C232.108 504.302 213.681 515.208 198.37 519.129C176.608 524.678 159.093 524.858 133.804 527.094C120.638 528.268 97.8626 523.284 98.1565 527.84C98.4651 532.395 121.814 534.797 136.67 536.468C151.173 538.028 193.154 535.363 196.489 543.632C198.047 547.622 148.087 571.559 133.349 579.456C120.947 586.165 94.7916 591.549 93.1605 595.566C104.431 595.566 146.706 585.778 146.706 585.778C141.563 591.618 138.83 595.221 134.627 601.723C129.852 609.164 128.808 619.959 128.808 627.137C128.808 627.137 142.533 604.511 153.054 595.676C163.56 586.855 173.42 576.253 196.387 573.368C209.112 571.766 221.293 570.786 228.082 572.788C233.563 574.403 235.487 583.376 231.873 586.524C219.059 597.692 185.395 620.925 175.124 629.181C155.89 644.614 114.173 648.59 121.123 650.178C132.982 652.566 164.192 641.55 161.767 646.685C157.917 654.775 161.047 675.868 163.545 670.305C165.558 649.722 180.429 637.822 192.316 631.458C225.26 612.546 243.114 608.142 241.101 620.566C237.354 643.676 231.153 658.309 213.74 674.115C192.772 693.083 170.172 692.489 144.325 695.692C136.508 696.658 122.314 699.047 114.482 701.504C109.265 703.133 110.661 706.349 117.215 705.604C120.991 705.107 163.575 698.011 160.856 709.069C158.138 720.14 138.668 739.646 144.693 739.591C150.732 739.522 156.757 724.282 176.079 713.058C189.554 705.286 205.82 698.881 212.286 703.713C217.326 707.467 214.857 726.049 209.273 744.409C203.675 762.769 189.436 775.442 184.881 786.168C192.919 781.378 214.24 763.75 222.498 740.999C223.791 737.438 224.864 733.945 225.731 730.535C226.392 727.898 244.51 742.283 244.95 739.743C245.612 735.933 227.905 723.067 228.684 711.747C229.478 700.441 228.273 692.268 226.642 685.311C232.152 675.661 235.59 670.374 241.968 661.304C249.3 650.923 257.72 636.111 261.334 637.325L266.419 659.689C267.756 672.748 270.107 682.66 268.696 695.692C267.05 711.926 248.404 773.247 248.404 777.251C251.651 774.821 275.25 719.201 280.701 711.678C282.758 708.448 285.007 706.888 288.754 706.073C295.101 704.748 297.673 708.475 303.33 714.094C308.444 721.59 310.839 726.311 313.778 734.898C317.348 745.03 317.231 751.38 318.627 762.052C320.566 776.947 321.139 785.437 321.022 800.443C325.9 797.268 332.777 753.175 325.077 727.65C317.378 702.111 303.859 697.707 297.673 686.111C291.472 674.515 302.786 639.023 304.138 632.549C306.342 621.988 313.278 617.847 319.156 625.26C323.755 631.072 359.153 686.236 365.457 702.07C371.79 718.042 385.25 767.491 389.29 769.092C388.762 758.393 378.784 726.946 376.727 716.468C374.523 705.052 372.995 692.586 372.995 689.273C372.995 685.973 418.693 729.859 421.911 726.628C396.094 700.261 372.745 670.76 359.006 653.159C352.452 644.766 344.856 628.697 344.958 624.432C345.061 620.207 359.285 632.466 365.251 636.815C377.418 645.608 400.473 661.442 401.251 655.037C401.251 655.037 356.905 617.736 344.003 602.137C331.102 586.538 339.11 581.126 355.127 578.696C371.158 576.267 380.694 583.694 393.684 590.969C407.629 598.741 421.147 612.739 432.418 622.927C444.496 633.819 450.256 640.404 460.66 652.511C465.759 650.688 449.742 628.035 439.192 618.551C429.347 609.812 419.075 597.94 426.261 590.154C433.461 582.355 502.156 590.003 503.449 586.966C505.006 583.045 446.098 571.118 416.915 570.897C387.748 570.69 350.557 545.634 356.523 536.288C362.474 526.956 391.127 532.934 440.499 551.888C448.111 552.55 426.231 538.538 419.898 533.872C439.779 533.21 471.901 519.239 471.019 515.194C439.779 524.54 422.264 525.203 398.871 518.535C375.478 511.867 334.761 499.015 334.761 494.75C334.761 482.781 334.305 467.057 335.892 445.453L337.567 414.82C495.103 412.459 568 400.214 568 400.214C568 400.214 495.103 387.983 337.567 385.623L335.892 354.976C334.305 333.385 334.761 317.662 334.761 305.693C334.761 301.427 375.478 288.575 398.871 281.907C422.264 275.24 439.779 275.902 471.019 285.234C471.901 281.19 439.779 267.233 419.898 266.557C426.231 261.891 448.111 247.892 440.499 248.555C391.127 267.495 362.474 273.487 356.523 264.141C350.557 254.809 387.748 229.753 416.915 229.532C446.098 229.311 505.006 217.384 503.449 213.463Z" fill="#00447C"/>
</svg>
