<svg width="114" height="128" viewBox="0 0 114 128" fill="none" xmlns="http://www.w3.org/2000/svg">
<path d="M26.1213 123.105C23.9073 121.172 21.4805 117.941 19 114.384C20.5965 114.143 21.9541 113.761 22.6851 113.001C24.422 116.731 26.2601 119.063 29.0084 122.048C27.8866 121.679 27.1721 122.751 26.1213 123.105Z" fill="#FBD682"/>
<path d="M69 7.51178C69.9678 5.2913 71.7736 2.6934 73.7902 -0.000123978C74.1844 1.36215 74.6396 2.49437 75.2553 3.0217C73.0144 5.08967 71.7246 7.04131 70.1307 9.88477C70.2134 8.8482 69.3908 8.38033 69 7.51178Z" fill="#FBD682"/>
<path d="M18.9458 30.3425C17.8704 27.8764 15.8671 24.9916 13.6259 22.0008C13.1891 23.513 12.685 24.7719 12 25.3587C14.4893 27.6541 15.9214 29.8203 17.6895 32.9766C17.599 31.8263 18.5115 31.3067 18.9458 30.3425Z" fill="#D3DFFF"/>
<path d="M102.932 59.4638C105.704 60.4822 109.578 60.9346 113.729 61.2422C112.954 59.5309 112.431 57.9722 112.564 56.7986C108.728 57.3234 105.881 56.9124 102 55.9999C102.948 56.8788 102.57 58.223 102.932 59.4638Z" fill="#C6EAE9"/>
<path d="M3.00528 75C5.62746 76.7604 8.63014 79.8933 11.7287 83.3727C10.0271 83.8742 8.60067 84.4946 7.89653 85.4277C5.58377 81.6485 3.32245 79.4022 0 76.5846C1.25784 76.8147 1.90771 75.5429 3.00528 75Z" fill="#F5C7BE"/>
<path d="M76.7694 31.0437C76.7638 31.1319 76.7555 31.2201 76.7443 31.3084C76.711 31.5787 76.6582 31.8575 76.5943 32.1307C76.5526 32.3128 76.5053 32.4949 76.4553 32.6685C76.3969 32.8762 76.333 33.0754 76.2718 33.2575C76.2551 33.3031 76.2412 33.3486 76.2273 33.3913C76.2162 33.4311 76.2023 33.4681 76.1884 33.5051L76.1829 33.5165C76.1634 33.5706 76.1467 33.6218 76.1273 33.673L76.1217 33.6901C76.1078 33.7328 76.0912 33.7726 76.0773 33.8124C75.98 34.0771 75.9105 34.2393 75.9105 34.2393C74.8737 34.0657 74.1205 33.4994 73.584 32.7681C73.5284 32.6941 73.4756 32.6201 73.4256 32.5433L73.4172 32.5291V32.5262C72.7279 31.4791 72.4166 30.1701 72.2748 29.1884C72.272 29.177 72.272 29.1685 72.2693 29.1571C72.2192 28.8014 72.1914 28.4884 72.1748 28.2522C72.1581 27.9848 72.3665 27.76 72.6278 27.7628L73.0336 27.7685L73.4784 27.0002L76.6082 28.4287C76.6082 28.4287 76.7471 29.0974 76.7833 30.0051C76.7972 30.3266 76.7944 30.6795 76.7694 31.0437Z" fill="#F9B384"/>
<path d="M74.7732 31.4787L73.7448 32.5913L73.4168 32.5287V32.5259C72.7275 31.4787 72.4162 30.1698 72.2744 29.1881L73.0694 29.3787C73.1055 29.9137 73.5391 31.0092 73.5391 31.0092L74.7732 31.4787Z" fill="#E28B6D"/>
<path d="M73.3839 29.347C73.0587 29.623 72.525 29.3299 72.2693 29.1592C72.2192 28.8035 72.1914 28.4905 72.1748 28.2543C72.1581 27.9868 72.3665 27.762 72.6278 27.7649L73.0336 27.7706C73.0336 27.7706 73.7869 29.0027 73.3839 29.347Z" fill="#E28B6D"/>
<path d="M75.0039 31.4577C75.0706 31.2301 75.0678 30.8694 74.5446 30.6347L75.2297 30.6852L75.3214 31.4449C75.3214 31.4449 75.2019 31.4236 75.0039 31.4577ZM76.7835 30.0051L76.6473 29.9873L74.2965 29.4346L73.5404 31.0103L74.6648 31.5452C74.3201 31.6683 73.874 31.9479 73.4258 32.544C73.974 33.3813 74.769 34.0479 75.91 34.2393C75.91 34.2393 76.673 32.4402 76.7696 31.0451C76.7953 30.6788 76.796 30.3259 76.7835 30.0051Z" fill="#F9B384"/>
<path d="M76.5748 35.661C74.0398 42.2399 69.2229 49.7806 64.6561 54.9168C62.98 56.8005 61.3401 58.3598 59.8584 59.4326L57.4151 52.9818L57.1094 52.1737L57.8765 51.4708L58.0155 51.3428L66.8686 43.2358L72.6251 33.4956L76.5748 35.661Z" fill="#1F3C88"/>
<path d="M63.6045 116.593L57.8357 116.832L56.9282 120.968L62.3405 121.834L63.6045 116.593Z" fill="#F9B384"/>
<path d="M67.3229 127.001L62.3405 121.835L56.9282 120.969L55.6143 126.957L67.3229 127.001Z" fill="#D3DFFF"/>
<path d="M50.8174 75.8483L60.9092 95.0763L55.6157 118.156L65.4524 118.1L70.9066 99.8881C71.8072 96.8818 71.5911 93.6408 70.2993 90.7874L64.3837 77.7186L50.8174 75.8483Z" fill="#102048"/>
<path d="M58.2736 51.6253C58.2374 52.8631 58.1875 53.9017 58.1985 54.1009L53.5484 54.8379L50.8828 52.8403C52.1502 51.3578 52.7395 47.9745 53.4734 45.0436L56.3946 46.8277L58.2903 47.983C58.3404 48.9676 58.3153 50.3932 58.2736 51.6253Z" fill="#F9B384"/>
<path d="M58.2741 51.6265C56.8816 50.77 55.0776 49.4639 54.2549 46.5073L56.3951 46.8289L58.2909 47.9842C58.3408 48.9687 58.3158 50.3943 58.2741 51.6265Z" fill="#E28B6D"/>
<path d="M61.0397 44.463C61.0702 45.1231 60.9896 45.7264 60.8173 46.2585C59.9026 49.1069 56.4449 49.8866 53.8932 46.2414L53.6792 40.6129L55.4831 39.0223L61.3482 41.3414L60.9813 43.8256C61.0119 44.0447 61.0341 44.2552 61.0397 44.463Z" fill="#F9B384"/>
<path d="M67.5996 72.7523C66.6886 66.3598 62.5908 56.8372 58.2325 52.825L56.1836 57.02L62.135 74.2007L67.5996 72.7523Z" fill="#708CD5"/>
<path d="M64.6719 72.7509C63.2911 66.2176 61.4198 59.3662 58.2324 52.8236C56.6225 54.7216 51.8904 51.026 51.8904 51.026L49.4512 53.1729L55.8907 75.6143L64.6719 72.7509Z" fill="white"/>
<path d="M70.6567 95.3933L65.648 93.6618L64.4326 96.6781L69.226 99.3223L70.6567 95.3933Z" fill="#F9B384"/>
<path d="M72.1525 105.783L69.2256 99.3233L64.4323 96.6791L62.2656 102.054L72.1525 105.783Z" fill="#D3DFFF"/>
<path d="M56.0208 69.0244C62.9235 69.5302 70.0204 70.7922 76.3356 73.5943C79.7384 75.1046 80.8683 79.8837 79.3159 83.3325L73.0633 97.2251L63.9888 94.3283L69.7571 82.0363C52.3247 82.5692 50.416 76.013 50.416 76.013L56.0208 69.0244Z" fill="#1F3C88"/>
<path d="M57.0461 76.8633C54.7724 81.032 51.4564 83.3227 47.3593 84.9219L46.8924 80.6763L46.0363 72.8853L44.7188 60.8771L45.5971 56.6202L49.5969 54.6738C53.9886 59.4173 55.4117 70.017 57.0461 76.8633Z" fill="#708CD5"/>
<path d="M46.8307 79.67L46.5774 77.5244L46.1622 74.0079L45.9118 71.8864L52.5404 69.0161C51.4795 73.6122 49.6184 77.2163 46.8307 79.67Z" fill="#5874BE"/>
<path d="M54.084 43.7088C54.1606 42.1694 54.5774 41.3463 55.6972 40.8697C57.8237 42.853 61.7485 42.7819 63.7116 40.9529C63.0028 40.6997 62.4851 40.5147 61.9744 39.9691C61.6818 39.6561 61.5345 39.4469 61.1551 38.6729C59.7919 35.89 54.7012 35.7008 53.9832 38.3798C50.833 39.9449 52.3549 42.3181 52.869 43.7607L54.084 43.7088Z" fill="#102048"/>
<path d="M54.127 62.386L55.1418 61.755L56.4494 59.5262L58.2033 58.6278C58.3069 58.5744 58.4328 58.6228 58.477 58.7323C58.6989 58.9258 58.8212 59.2054 58.8229 59.591C59.2178 59.9289 59.2928 60.3073 59.1151 60.7178C59.6592 60.9547 59.8633 61.2449 59.7029 61.5942C59.9473 62.004 60.0912 62.3974 59.994 62.8776L57.2954 64.8744L54.6444 65.8789L54.127 62.386Z" fill="#F9B384"/>
<path d="M51.8904 51.0272L46.362 51.7023C44.4276 51.9385 42.7941 53.273 42.1244 55.1454C40.4309 59.8818 39.2832 64.9568 39.0086 69.314C38.8345 72.0771 41.3256 74.2262 43.9658 73.6257C48.2972 72.6405 51.8369 69.7736 54.9802 66.4258L54.4598 61.831L45.6135 66.1598L51.8904 51.0272Z" fill="#708CD5"/>
<path d="M54.9013 44.7254C54.5655 45.4752 54.017 45.9831 53.3068 45.6495C52.5966 45.3158 51.7195 44.2516 52.1749 43.2236C52.5077 42.4731 53.5178 42.4283 54.2281 42.7619C54.9383 43.0949 55.2371 43.9763 54.9013 44.7254Z" fill="#F9B384"/>
<path d="M56.48 55.0938C55.8843 55.0938 55.2936 54.8213 54.9297 54.3589L55.0067 54.2806C55.422 54.6214 55.9321 54.812 56.4415 54.812C56.4871 54.812 56.5327 54.8106 56.5782 54.8078C57.1321 54.7694 57.6648 54.5069 58.0738 54.0857L58.1597 54.1533C57.8397 54.6954 57.2293 55.0532 56.5953 55.0902C56.5569 55.0923 56.5184 55.0938 56.48 55.0938Z" fill="#BBC4DB"/>
<path d="M57.0594 42.4448C56.5873 42.3125 56.4655 43.1526 56.5379 43.4592C56.6057 43.7466 56.8339 43.8299 57.0294 43.5994C57.209 43.3881 57.4733 42.5615 57.0594 42.4448Z" fill="#102048"/>
<path d="M60.0926 42.9818C60.0314 42.7178 59.7393 42.6218 59.5767 42.8345C59.506 42.927 59.4739 43.0493 59.4559 43.1696C59.4286 43.3531 59.3798 43.5822 59.4413 43.7707C59.5186 44.0069 59.7294 44.1136 59.8856 43.8895C60.0371 43.6675 60.1557 43.2606 60.0926 42.9818Z" fill="#102048"/>
<path d="M58.4518 43.3751C58.4473 43.597 58.4352 43.8204 58.4412 44.0338C58.4478 44.1391 58.4518 44.2494 58.4817 44.3205C58.5122 44.3981 58.568 44.4749 58.6386 44.5546C58.7083 44.6342 58.7873 44.7203 58.8556 44.8299C58.89 44.8832 58.9158 44.9465 58.9367 45.0141C58.9548 45.0831 58.9649 45.1784 58.9197 45.2645C58.8747 45.3499 58.8043 45.3911 58.7486 45.4182C58.6908 45.4459 58.6356 45.4644 58.5837 45.4815C58.4767 45.5099 58.3819 45.5405 58.2969 45.5903L58.2282 45.5128C58.3092 45.4153 58.4208 45.3606 58.5154 45.3072C58.6104 45.2631 58.712 45.2019 58.7135 45.1635C58.723 45.1386 58.698 45.0475 58.6412 44.9714C58.591 44.8925 58.5165 44.8178 58.4427 44.7303C58.3703 44.6421 58.2875 44.5403 58.2457 44.4052C58.2029 44.2636 58.2121 44.1455 58.2203 44.0288C58.2394 43.7962 58.2838 43.575 58.3512 43.3566L58.4518 43.3751Z" fill="#102048"/>
<path d="M56.8613 45.41L58.7896 46.3704C58.4596 47.0284 56.9829 46.9573 56.8613 45.41Z" fill="white"/>
<path d="M60.6533 46.2759C60.1417 46.2759 59.7275 45.8519 59.7275 45.3283C59.7275 44.8047 60.1417 44.3779 60.6533 44.3779C60.7923 44.3779 60.923 44.4092 61.0397 44.4633C61.0439 44.5565 61.046 44.6482 61.046 44.7386C61.0453 45.292 60.9653 45.8021 60.8173 46.2588C60.7645 46.2702 60.7089 46.2759 60.6533 46.2759Z" fill="#FAA280"/>
<path d="M55.6276 45.6841C55.2157 45.6841 54.8666 45.4088 54.7461 45.0282C54.8019 44.9336 54.8536 44.8326 54.9011 44.7266C55.0062 44.4918 55.0491 44.245 55.0367 44.0052C55.1971 43.8686 55.403 43.7868 55.6276 43.7868C56.1393 43.7868 56.5541 44.2115 56.5541 44.7358C56.5541 45.2594 56.1393 45.6841 55.6276 45.6841Z" fill="#FAA280"/>
</svg>
